<svg width="512" height="512" viewBox="0 0 512 512" fill="none" xmlns="http://www.w3.org/2000/svg">
  <rect width="512" height="512" rx="126" fill="url(#bg)" />
  <rect x="20" y="20" width="472" height="472" rx="108" stroke="url(#frame)" stroke-width="8" />

  <path
    d="M240 395C171 346 126 300 126 237C126 186 164 149 213 149C245 149 273 165 290 193C307 165 335 149 367 149C416 149 454 186 454 237C454 300 409 346 340 395L290 432L240 395Z"
    fill="url(#heartBackFill)"
    stroke="url(#heartBackStroke)"
    stroke-width="16"
    stroke-linejoin="round"
  />

  <path
    d="M289 330C246 299 218 268 218 226C218 193 243 167 274 167C294 167 312 177 324 194C336 177 354 167 374 167C405 167 430 193 430 226C430 268 402 299 359 330L324 356L289 330Z"
    fill="url(#heartFrontFill)"
  />

  <path
    d="M286 214C299 202 316 196 334 196"
    stroke="#7FA66E"
    stroke-width="11"
    stroke-linecap="round"
  />

  <defs>
    <linearGradient id="bg" x1="56" y1="40" x2="448" y2="472" gradientUnits="userSpaceOnUse">
      <stop stop-color="#FFFDF9" />
      <stop offset="0.56" stop-color="#FFF8F2" />
      <stop offset="1" stop-color="#F5FAFF" />
    </linearGradient>

    <linearGradient id="frame" x1="54" y1="44" x2="448" y2="472" gradientUnits="userSpaceOnUse">
      <stop stop-color="#F2E4DA" stop-opacity="0.85" />
      <stop offset="1" stop-color="#E3EDF8" stop-opacity="0.9" />
    </linearGradient>

    <linearGradient id="heartBackFill" x1="156" y1="162" x2="392" y2="389" gradientUnits="userSpaceOnUse">
      <stop stop-color="#FFF3F7" />
      <stop offset="1" stop-color="#F8D2DE" />
    </linearGradient>

    <linearGradient id="heartBackStroke" x1="164" y1="167" x2="397" y2="380" gradientUnits="userSpaceOnUse">
      <stop stop-color="#E8A5BF" />
      <stop offset="1" stop-color="#D57D9E" />
    </linearGradient>

    <linearGradient id="heartFrontFill" x1="239" y1="175" x2="404" y2="332" gradientUnits="userSpaceOnUse">
      <stop stop-color="#E9F6D7" />
      <stop offset="1" stop-color="#CBE8A9" />
    </linearGradient>
  </defs>
</svg>
