<svg width="512" height="512" viewBox="0 0 512 512" fill="none" xmlns="http://www.w3.org/2000/svg">
  <rect width="512" height="512" rx="120" fill="url(#card)" />
  <rect x="20" y="20" width="472" height="472" rx="100" stroke="rgba(255,255,255,0.72)" stroke-width="8" />

  <path
    d="M256 390C192 338 150 290 150 235C150 190 181 160 223 160C248 160 271 172 286 193C301 172 324 160 349 160C391 160 422 190 422 235C422 290 380 338 316 390L286 414L256 390Z"
    fill="url(#heartFill)"
    stroke="#D889A6"
    stroke-width="11"
    stroke-linejoin="round"
  />

  <path
    d="M285 286C263 257 253 231 253 204C253 171 276 148 306 148C336 148 359 171 359 204C359 231 349 257 327 286L306 310L285 286Z"
    fill="url(#dropFill)"
    stroke="#E28EAB"
    stroke-width="9"
    stroke-linejoin="round"
  />

  <path
    d="M293 205C293 188 301 175 314 167"
    stroke="white"
    stroke-width="10"
    stroke-linecap="round"
    opacity="0.96"
  />

  <path
    d="M188 185C182 151 188 122 206 101C232 70 277 67 310 92C330 107 343 128 346 151C370 145 394 151 411 167C438 193 438 237 412 264C378 299 317 308 241 289L210 281L201 247C194 220 191 201 188 185Z"
    fill="url(#leafFill)"
    opacity="0.96"
  />

  <path
    d="M210 161C242 152 271 164 288 186"
    stroke="#9EBE8B"
    stroke-width="12"
    stroke-linecap="round"
    opacity="0.9"
  />

  <defs>
    <linearGradient id="card" x1="72" y1="42" x2="438" y2="456" gradientUnits="userSpaceOnUse">
      <stop stop-color="#FFFDF8" />
      <stop offset="0.48" stop-color="#FFF6F0" />
      <stop offset="1" stop-color="#F4FBFF" />
    </linearGradient>
    <linearGradient id="heartFill" x1="175" y1="168" x2="390" y2="396" gradientUnits="userSpaceOnUse">
      <stop stop-color="#FFE8EF" />
      <stop offset="1" stop-color="#F6BED0" />
    </linearGradient>
    <linearGradient id="dropFill" x1="262" y1="156" x2="344" y2="300" gradientUnits="userSpaceOnUse">
      <stop stop-color="#F9CFDB" />
      <stop offset="1" stop-color="#E696AF" />
    </linearGradient>
    <linearGradient id="leafFill" x1="190" y1="86" x2="405" y2="286" gradientUnits="userSpaceOnUse">
      <stop stop-color="#EAF5DD" />
      <stop offset="1" stop-color="#BFD9A9" />
    </linearGradient>
  </defs>
</svg>
